/* XPM */
static char * vim_16_xpm[] = {
"16 16 126 2",
"  	c None",
". 	c #4B6D24",
"+ 	c #486721",
"@ 	c #B2B3B1",
"# 	c #B7B9B8",
"$ 	c #B8B8B7",
"% 	c #747D6A",
"& 	c #80C130",
"* 	c #82C235",
"= 	c #748860",
"- 	c #BABABA",
"; 	c #B0B2B1",
"> 	c #F2F2F2",
", 	c #EFEFEF",
"' 	c #B0B2B0",
") 	c #5E9A11",
"! 	c #6CB608",
"~ 	c #B6BFAC",
"{ 	c #797A7A",
"] 	c #989998",
"^ 	c #EEEEEE",
"/ 	c #EBEBEB",
"( 	c #D3D3D3",
"_ 	c #5A6550",
": 	c #6EAF13",
"< 	c #72B911",
"[ 	c #779E42",
"} 	c #D7D8D6",
"| 	c #CDCDCD",
"1 	c #3A3D3D",
"2 	c #E4E4E4",
"3 	c #E7E7E7",
"4 	c #A8A9A8",
"5 	c #6FAD1D",
"6 	c #78BD1A",
"7 	c #77BB1B",
"8 	c #A1AF90",
"9 	c #E9E9E9",
"0 	c #CDCDCC",
"a 	c #454747",
"b 	c #E2E2E2",
"c 	c #E3E3E3",
"d 	c #A7A8A6",
"e 	c #74AF25",
"f 	c #7DBD24",
"g 	c #A0AE8E",
"h 	c #E6E6E6",
"i 	c #CBCCCB",
"j 	c #505B48",
"k 	c #5C743E",
"l 	c #687855",
"m 	c #E0E0E0",
"n 	c #DFDFDF",
"o 	c #A6A6A5",
"p 	c #78B12D",
"q 	c #9FAD8D",
"r 	c #CBCBCB",
"s 	c #4E5B43",
"t 	c #7EB92C",
"u 	c #97CB56",
"v 	c #617B44",
"w 	c #93B667",
"x 	c #DDDDDD",
"y 	c #DBDBDB",
"z 	c #A4A5A4",
"A 	c #9CA88C",
"B 	c #CBCBCA",
"C 	c #4F5B45",
"D 	c #82BC35",
"E 	c #8AC835",
"F 	c #A3D26B",
"G 	c #93AB74",
"H 	c #DADADA",
"I 	c #D7D7D7",
"J 	c #D1D2D1",
"K 	c #CACACA",
"L 	c #4F5A45",
"M 	c #86BE3C",
"N 	c #90CB3E",
"O 	c #91CC40",
"P 	c #A1C477",
"Q 	c #56614D",
"R 	c #D5D5D5",
"S 	c #D4D4D4",
"T 	c #C9C9C8",
"U 	c #525A48",
"V 	c #8CC045",
"W 	c #96CE47",
"X 	c #97CF49",
"Y 	c #A6C67E",
"Z 	c #CFCFCF",
"` 	c #D0D0D0",
" .	c #C8C8C8",
"..	c #525B4A",
"+.	c #91C34C",
"@.	c #9CD250",
"#.	c #9DD352",
"$.	c #A9C786",
"%.	c #CCCCCC",
"&.	c #C7C7C7",
"*.	c #535A4C",
"=.	c #96C655",
"-.	c #A2D659",
";.	c #A3D65B",
">.	c #AFCA8C",
",.	c #CECECE",
"'.	c #C9C9C9",
").	c #C6C7C6",
"!.	c #555952",
"~.	c #9BC75E",
"{.	c #A8D962",
"].	c #A9D964",
"^.	c #B1C992",
"/.	c #C3C4C3",
"(.	c #474949",
"_.	c #3E493B",
":.	c #B3CA94",
"<.	c #AFDD6D",
"[.	c #B3C996",
"}.	c #3F4A37",
"|.	c #949694",
"1.	c #434644",
"2.	c #48533F",
"3.	c #B2C696",
"4.	c #B0C395",
"5.	c #414B38",
"              . +               ",
"  @ # # # $ % & * = - # # ;     ",
"  > , , , , ' ) ! ~ , , , > {   ",
"  ] ^ / / ( _ : < [ } / / | 1   ",
"    2 3 3 4 5 6 7 8 9 3 0 a     ",
"    b c c d e f g h c i j k     ",
"  l m n n o p q b n r s t u v   ",
"  w x y y z A n y B C D E E F   ",
"  G H I I J x I K L M N N O P   ",
"  Q R ( ( m S T U V W W X Y     ",
"    ( Z Z `  ...+.@.@.#.$.      ",
"    ` r %.&.*.=.-.-.;.>.        ",
"    ,.'.).!.~.{.{.].^.          ",
"    ,./.(._.:.<.<.[.}.          ",
"    |.1.    2.3.4.5.            ",
"                                "};
