/* XPM */
static char * vim_32_xpm[] = {
"32 32 299 2",
"  	c None",
". 	c #1C290C",
"+ 	c #7DA854",
"@ 	c #769E4F",
"# 	c #172409",
"$ 	c #6B6C69",
"% 	c #6C6E6A",
"& 	c #696B68",
"* 	c #1D2A0E",
"= 	c #ABDD7B",
"- 	c #7CC222",
"; 	c #81C62B",
"> 	c #A5D878",
", 	c #172209",
"' 	c #C4C4C3",
") 	c #F0F0F0",
"! 	c #BBBCBB",
"~ 	c #627258",
"{ 	c #79C01F",
"] 	c #68B302",
"^ 	c #7EC327",
"/ 	c #9DCB76",
"( 	c #939491",
"_ 	c #EFEFEF",
": 	c #F1F1F1",
"< 	c #DDDEDE",
"[ 	c #5F6160",
"} 	c #737672",
"| 	c #F9F9F9",
"1 	c #616360",
"2 	c #548615",
"3 	c #6BB506",
"4 	c #749846",
"5 	c #ECEDEC",
"6 	c #F5F5F5",
"7 	c #9A9B9A",
"8 	c #262C2D",
"9 	c #757673",
"0 	c #F8F8F8",
"a 	c #EEEEEE",
"b 	c #5C5D5A",
"c 	c #446420",
"d 	c #6EB70A",
"e 	c #6A9134",
"f 	c #ECECEB",
"g 	c #F4F4F4",
"h 	c #252A2B",
"i 	c #AFB0AE",
"j 	c #EBECEB",
"k 	c #FCFCFC",
"l 	c #ECECEC",
"m 	c #FBFBFB",
"n 	c #EBEBEB",
"o 	c #A8A9A8",
"p 	c #2B2E2B",
"q 	c #57861B",
"r 	c #71B80F",
"s 	c #6EAE16",
"t 	c #91958D",
"u 	c #E8E8E8",
"v 	c #FAFAFA",
"w 	c #EDEDED",
"x 	c #F1F1F0",
"y 	c #585957",
"z 	c #272C2E",
"A 	c #555855",
"B 	c #EFEFEE",
"C 	c #EAEAEA",
"D 	c #4F524E",
"E 	c #353E31",
"F 	c #456423",
"G 	c #74B913",
"H 	c #74BA13",
"I 	c #6AA022",
"J 	c #6C6E6B",
"K 	c #727471",
"L 	c #292E30",
"M 	c #6E706C",
"N 	c #484A47",
"O 	c #629421",
"P 	c #77BC18",
"Q 	c #74B21E",
"R 	c #808A74",
"S 	c #E9E9E9",
"T 	c #737472",
"U 	c #262A2C",
"V 	c #E6E6E6",
"W 	c #649524",
"X 	c #7ABE1C",
"Y 	c #77B421",
"Z 	c #7E8971",
"` 	c #F3F3F3",
" .	c #E7E7E7",
"..	c #747472",
"+.	c #262B2C",
"@.	c #E4E4E4",
"#.	c #474A46",
"$.	c #669727",
"%.	c #7DC021",
"&.	c #7AB725",
"*.	c #7D8870",
"=.	c #F2F2F2",
"-.	c #747572",
";.	c #333A34",
">.	c #20271A",
",.	c #696B67",
"'.	c #E2E2E2",
").	c #484A46",
"!.	c #68972A",
"~.	c #80C125",
"{.	c #7CB829",
"].	c #7D8770",
"^.	c #E5E5E5",
"/.	c #2E372B",
"(.	c #77A241",
"_.	c #B6DA92",
":.	c #1B230F",
"<.	c #50564B",
"[.	c #E0E0E0",
"}.	c #6A992E",
"|.	c #83C32A",
"1.	c #80BB2E",
"2.	c #7C866D",
"3.	c #757674",
"4.	c #2E382B",
"5.	c #69992C",
"6.	c #96D04C",
"7.	c #B7DB95",
"8.	c #1C2310",
"9.	c #222C17",
"0.	c #90A080",
"a.	c #DEDEDE",
"b.	c #6D9A30",
"c.	c #83BE31",
"d.	c #7B856C",
"e.	c #EFF0EF",
"f.	c #757774",
"g.	c #6B972F",
"h.	c #86C52E",
"i.	c #9AD150",
"j.	c #B9DB98",
"k.	c #1C2410",
"l.	c #18230E",
"m.	c #BFE09F",
"n.	c #7F985D",
"o.	c #DCDCDC",
"p.	c #6D9736",
"q.	c #798469",
"r.	c #E1E1E1",
"s.	c #767775",
"t.	c #2D372C",
"u.	c #6C9832",
"v.	c #89C733",
"w.	c #9CD354",
"x.	c #B7D897",
"y.	c #151E09",
"z.	c #5B6F3F",
"A.	c #AFDE75",
"B.	c #799453",
"C.	c #DADADA",
"D.	c #484B47",
"E.	c #757E6A",
"F.	c #DFDFDF",
"G.	c #767876",
"H.	c #2E352C",
"I.	c #6D9836",
"J.	c #8CC838",
"K.	c #B6E282",
"L.	c #40522A",
"M.	c #2B371B",
"N.	c #C8EAA6",
"O.	c #7B9658",
"P.	c #D8D8D8",
"Q.	c #626460",
"R.	c #777976",
"S.	c #6E9838",
"T.	c #8ECA3B",
"U.	c #93CD44",
"V.	c #C8E8A8",
"W.	c #202A11",
"X.	c #4D5B3E",
"Y.	c #94A384",
"Z.	c #D6D6D6",
"`.	c #797A78",
" +	c #2F362D",
".+	c #6E973B",
"++	c #91CC40",
"@+	c #97CF4A",
"#+	c #CAEAAC",
"$+	c #3F4B32",
"%+	c #5E6557",
"&+	c #D4D4D4",
"*+	c #FFFFFF",
"=+	c #DBDBDB",
"-+	c #D7D7D7",
";+	c #6E953C",
">+	c #94CE44",
",+	c #9AD14E",
"'+	c #CDEAAF",
")+	c #414B32",
"!+	c #5F615D",
"~+	c #D2D2D2",
"{+	c #D5D5D5",
"]+	c #6F9541",
"^+	c #97CF49",
"/+	c #9DD252",
"(+	c #CFEAB2",
"_+	c #414B33",
":+	c #6A6C68",
"<+	c #D0D0D0",
"[+	c #D3D3D3",
"}+	c #797B78",
"|+	c #2E342C",
"1+	c #709443",
"2+	c #9FD457",
"3+	c #D1EBB5",
"4+	c #414C34",
"5+	c #686A67",
"6+	c #CECECE",
"7+	c #D1D1D1",
"8+	c #7A7C79",
"9+	c #729645",
"0+	c #9DD352",
"a+	c #A2D65B",
"b+	c #D3ECB8",
"c+	c #424C36",
"d+	c #CCCCCC",
"e+	c #CFCFCF",
"f+	c #2E352D",
"g+	c #709347",
"h+	c #A0D557",
"i+	c #A5D861",
"j+	c #D5ECBB",
"k+	c #434C36",
"l+	c #CACACA",
"m+	c #CDCDCD",
"n+	c #71914A",
"o+	c #A3D65B",
"p+	c #A8D964",
"q+	c #D6ECBF",
"r+	c #434C38",
"s+	c #C9C9C9",
"t+	c #7C7D7B",
"u+	c #2F352D",
"v+	c #70904B",
"w+	c #A6D860",
"x+	c #AADA68",
"y+	c #D9EDC2",
"z+	c #444D3A",
"A+	c #C7C7C7",
"B+	c #292C2B",
"C+	c #8D9B83",
"D+	c #ADDB69",
"E+	c #AADA64",
"F+	c #AFDC6C",
"G+	c #DBEDC5",
"H+	c #454D3B",
"I+	c #676966",
"J+	c #C5C5C5",
"K+	c #262A2A",
"L+	c #545C4B",
"M+	c #DCEFC5",
"N+	c #B0DD6F",
"O+	c #ADDC69",
"P+	c #B2DE71",
"Q+	c #DEEEC8",
"R+	c #454D3D",
"S+	c #61635F",
"T+	c #E4E5E4",
"U+	c #C8C8C8",
"V+	c #757675",
"W+	c #252929",
"X+	c #293031",
"Y+	c #555C4A",
"Z+	c #DEEFC8",
"`+	c #B3DF73",
" @	c #B0DE6D",
".@	c #B5E076",
"+@	c #DFEECB",
"@@	c #454C3D",
"#@	c #B8B9B8",
"$@	c #D9DAD9",
"%@	c #6E6F6D",
"&@	c #252A2A",
"*@	c #292F31",
"=@	c #555C4C",
"-@	c #E0EFCC",
";@	c #B5E077",
">@	c #B7E17A",
",@	c #E1EFCE",
"'@	c #454D3F",
")@	c #393C3C",
"!@	c #282D2F",
"~@	c #54594B",
"{@	c #D4E2C1",
"]@	c #D2E0C0",
"^@	c #474D3F",
"/@	c #1D2315",
"(@	c #1A2214",
"                                                                ",
"                            . + @ #                             ",
"      $ % % % % % % % &   * = - ; > ,     % % % % % %           ",
"    ' ) ) ) ) ) ) ) ) ) ! ~ { ] ] ^ / ( _ ) ) ) ) ) : < [       ",
"  } | ) ) ) ) ) ) ) ) ) | 1 2 3 3 3 4 5 ) ) ) ) ) ) ) 6 7 8     ",
"  9 0 a a a a a a a a a 0 b c d d d e f a a a a a a a g 7 h     ",
"    i j k l l l l l m n o p q r r r s t u v l l l l w x y z     ",
"      A B C C C C C : D E F G H H H H I J 0 C C C n : K L       ",
"      M a u u u u u : N O P P P P P Q R g C u u S : T U         ",
"      M w V V V V V ) N W X X X X Y Z ` u V V  .x ..+.          ",
"      % w @.@.@.@.@.) #.$.%.%.%.&.*.=. .@.@.V ) -.;.>.          ",
"      ,.l '.'.'.'.'._ ).!.~.~.{.].: ^.'.'.@.) 9 /.(._.:.        ",
"      <.n [.[.[.[.[._ ).}.|.1.2.: @.[.[.'.) 3.4.5.|.6.7.8.      ",
"    9.0.n a.a.a.a.a.a #.b.c.d.e.'.a.a.[.) f./.g.h.h.h.i.j.k.    ",
"  l.m.n.C o.o.o.o.o.a #.p.q._ r.o.o.a.) s.t.u.v.v.v.v.v.w.x.y.  ",
"  z.A.B.C C.C.C.C.C.w D.E.a F.C.C.o._ G.H.I.J.J.J.J.J.J.J.K.L.  ",
"  M.N.O.S P.P.P.P.P.5 Q.w a.P.P.C._ R./.S.T.T.T.T.T.T.T.U.V.W.  ",
"    X.Y.u Z.Z.Z.Z.Z.6 B o.Z.Z.P.B `. +.+++++++++++++++@+#+$+    ",
"      %+u &+&+&+&+&+*+=+&+&+-+a `.t.;+>+>+>+>+>+>+>+,+'+)+      ",
"      !+ .~+~+~+~+~+~+~+~+{+w `.H.]+^+^+^+^+^+^+^+/+(+_+        ",
"      :+ .<+<+<+<+<+<+<+[+w }+|+1+,+,+,+,+,+,+,+2+3+4+          ",
"      5+V 6+6+6+6+6+6+7+w 8+H.9+0+0+0+0+0+0+0+a+b+c+            ",
"      5+S d+d+d+d+d+e+l 8+f+g+h+h+h+h+h+h+h+i+j+k+              ",
"      5+S l+l+l+l+m+l 8+H.n+o+o+o+o+o+o+o+p+q+r+                ",
"      5+S s+s+s+d+n t+u+v+w+w+w+w+w+w+w+x+y+z+                  ",
"      5+S A+A+l+n t+B+C+D+E+E+E+E+E+E+F+G+H+                    ",
"      I+u J+s+n 8+K+h L+M+N+O+O+O+O+P+Q+R+                      ",
"      S+T+U+C V+W+X+    Y+Z+`+ @ @.@+@@@                        ",
"        #@$@%@&@*@        =@-@;@>@,@'@                          ",
"          )@!@              ~@{@]@^@                            ",
"                              /@(@                              ",
"                                                                "};
